<?xml version="1.0" encoding="UTF-8" standalone="no"?>
<!-- Copyright 2017 mathsisfun.com -->
<svg xmlns="http://www.w3.org/2000/svg" xmlns:xlink="http://www.w3.org/1999/xlink" width="299" height="480.1" version="1.1" style="font-family:Verdana; font-size:12px; stroke-width:0.5;">
<defs/>
<path style="fill:white;" d="m 111.5,57.6 c -3.4,6.4 -6.8,12.7 -10.3,19 -3.4,6.1 -7.1,12 -11.1,17.7 -3.9,5.5 -8.3,11 -13.3,15.4 -0.6,0.5 -1.2,1.1 -1.8,1.6 v 15.8 H 112.2 V 56.3 c -0.2,0.5 -0.5,0.9 -0.7,1.4 z"/>
<path style="fill:white;" d="m 59.6,120.8 c -6.4,2.6 -13,4 -19.8,4.9 -0.7,0 -1.5,0.2 -2.2,0.3 v 1.3 h 37.3 v -15.8 c -4.7,3.9 -9.7,7.2 -15.3,9.5 z"/>
<path style="fill:#0084c8;" d="m 149.2,10.3 c -3.3,0.3 -6.5,1.5 -9.2,3.7 -2.7,2.3 -5.1,4.7 -7.3,7.5 -4.2,5.4 -7.9,11.4 -11.2,17.4 -3.2,5.7 -6.3,11.5 -9.3,17.3 v 70.9 h 37.3 V 10.3 c -0.1,0 -0.2,0 -0.3,0 z"/>
<path style="fill:#0084c8;" d="m 177.3,38.5 c -3.5,-6.1 -7.1,-12.2 -11.5,-17.7 -2.2,-2.6 -4.5,-5.3 -7.3,-7.2 -2.6,-1.8 -5.7,-3.5 -9,-3.4 v 116.9 h 37.3 v -70.9 c -3.1,-5.9 -6.2,-11.9 -9.6,-17.8 z"/>
<path style="fill:white;" d="m 258,125.5 c -6.5,-0.8 -13.1,-2.3 -19.1,-4.9 -5.3,-2.4 -10.3,-5.4 -14.7,-9.2 v 15.8 h 37.3 v -1.3 c -1.2,-0.1 -2.4,-0.2 -3.5,-0.4 z"/>
<path style="fill:white;" d="m 221.9,109.3 c -5.1,-4.8 -9.6,-10.3 -13.7,-16.1 -4,-5.7 -7.6,-11.7 -11,-17.7 -3.5,-6.2 -6.9,-12.6 -10.2,-18.9 0,-0 -0.1,-0.2 -0.1,-0.2 v 70.9 h 37.3 v -15.8 c -0.8,-0.7 -1.6,-1.3 -2.3,-2.1 z"/>
<path style="fill:none; stroke:black; stroke-width:0.38; stroke-linecap:round; stroke-linejoin:round;" d="m 0.3,127.1 c 6.7,-0 13.5,-0 20.2,-0.3 6.4,-0.2 12.9,-0.4 19.3,-1.3 6.8,-0.9 13.4,-2.3 19.8,-4.9 6.4,-2.6 12,-6.5 17.2,-11 5,-4.4 9.5,-9.9 13.3,-15.4 4,-5.7 7.7,-11.6 11.1,-17.7 3.6,-6.3 6.9,-12.6 10.3,-19 3.3,-6.3 6.6,-12.5 10,-18.7 3.4,-6 7,-12 11.2,-17.4 2.2,-2.8 4.6,-5.3 7.3,-7.5 2.6,-2.2 5.8,-3.4 9.2,-3.7 3.4,-0.3 6.6,1.5 9.3,3.3 2.8,1.9 5.1,4.6 7.3,7.2 4.4,5.4 8,11.6 11.5,17.7 3.4,5.9 6.5,12 9.7,18 3.3,6.3 6.7,12.7 10.2,18.9 3.4,6.1 7,12 11,17.7 4.1,5.8 8.6,11.3 13.7,16.1 5,4.8 10.8,8.5 17,11.2 6,2.7 12.6,4.1 19.1,4.9 6.6,0.8 13.3,1.2 20,1.4 6.6,0.2 13.2,0.2 19.8,0.3 0.3,0 0.7,0 1,0"/>
<g transform="matrix(0.5,0,0,0.5,-61.4398,-1.764)"/>
<path style="fill:#0084c8;" d="m 111.5,223.6 c -3.4,6.4 -6.8,12.7 -10.3,19 -3.4,6.1 -7.1,12 -11.1,17.7 -3.9,5.5 -8.3,11 -13.3,15.4 -0.6,0.5 -1.2,1.1 -1.8,1.6 v 15.8 H 112.2 v -70.9 c -0.2,0.5 -0.5,0.9 -0.7,1.4 z"/>
<path style="fill:white;" d="m 59.6,286.8 c -6.4,2.6 -13,4 -19.8,4.9 -0.7,0 -1.5,0.2 -2.2,0.3 v 1.3 h 37.3 v -15.8 c -4.7,3.9 -9.7,7.2 -15.3,9.5 z"/>
<path style="fill:#0084c8;" d="m 149.2,176.3 c -3.3,0.3 -6.5,1.5 -9.2,3.7 -2.7,2.3 -5.1,4.8 -7.3,7.6 -4.2,5.4 -7.9,11.4 -11.2,17.4 -3.2,5.7 -6.3,11.5 -9.3,17.3 v 70.9 h 37.3 V 176.3 c -0.1,0 -0.2,0 -0.3,0 z"/>
<path style="fill:#0084c8;" d="m 177.3,204.5 c -3.5,-6.1 -7.1,-12.3 -11.5,-17.7 -2.2,-2.6 -4.5,-5.3 -7.3,-7.2 -2.6,-1.8 -5.7,-3.5 -9,-3.4 v 116.9 h 37.3 v -70.9 c -3.1,-5.9 -6.2,-11.9 -9.6,-17.8 z"/>
<path style="fill:white;" d="m 258,291.5 c -6.5,-0.8 -13.1,-2.3 -19.1,-4.9 -5.3,-2.4 -10.3,-5.4 -14.7,-9.2 v 15.8 h 37.3 v -1.3 c -1.2,-0.1 -2.4,-0.2 -3.5,-0.4 z"/>
<path style="fill:#0084c8;" d="m 221.9,275.3 c -5.1,-4.8 -9.6,-10.3 -13.7,-16.1 -4,-5.7 -7.6,-11.7 -11,-17.7 -3.5,-6.2 -6.9,-12.6 -10.2,-18.9 0,-0 -0.1,-0.2 -0.1,-0.2 v 70.9 h 37.3 v -15.8 c -0.8,-0.7 -1.6,-1.3 -2.3,-2.1 z"/>
<path style="fill:none; stroke:black; stroke-width:0.38; stroke-linecap:round; stroke-linejoin:round;" d="m 0.3,293.1 c 6.7,-0 13.5,-0 20.2,-0.3 6.4,-0.2 12.9,-0.4 19.3,-1.3 6.8,-0.9 13.4,-2.3 19.8,-4.9 6.4,-2.6 12,-6.5 17.2,-11 5,-4.4 9.5,-9.9 13.3,-15.4 4,-5.7 7.7,-11.6 11.1,-17.7 3.6,-6.3 6.9,-12.6 10.3,-19 3.3,-6.3 6.6,-12.5 10,-18.7 3.4,-6 7,-12 11.2,-17.4 2.2,-2.8 4.6,-5.3 7.3,-7.5 2.6,-2.2 5.8,-3.4 9.2,-3.7 3.4,-0.3 6.6,1.5 9.3,3.3 2.8,1.9 5.1,4.6 7.3,7.2 4.4,5.4 8,11.6 11.5,17.7 3.4,5.9 6.5,12 9.7,18 3.3,6.3 6.7,12.7 10.2,18.9 3.4,6.1 7,12 11,17.7 4.1,5.8 8.6,11.3 13.7,16.1 5,4.8 10.8,8.5 17,11.2 6,2.7 12.6,4.1 19.1,4.9 6.6,0.8 13.3,1.2 20,1.4 6.6,0.2 13.2,0.2 19.8,0.3 0.3,0 0.7,0 1,0"/>
<path style="fill:#0084c8;" d="m 111.5,393.6 c -3.4,6.4 -6.8,12.7 -10.3,19 -3.4,6.1 -7.1,12 -11.1,17.7 -3.9,5.5 -8.3,11 -13.3,15.4 -0.6,0.5 -1.2,1.1 -1.8,1.6 v 15.8 H 112.2 v -70.9 c -0.2,0.5 -0.5,0.9 -0.7,1.4 z"/>
<path style="fill:#0084c8;" d="m 59.6,456.8 c -6.4,2.6 -13,4 -19.8,4.9 -0.7,0 -1.5,0.2 -2.2,0.3 v 1.3 h 37.3 v -15.8 c -4.7,3.9 -9.7,7.2 -15.3,9.5 z"/>
<path style="fill:#0084c8;" d="m 149.2,346.3 c -3.3,0.3 -6.5,1.5 -9.2,3.7 -2.7,2.3 -5.1,4.8 -7.3,7.6 -4.2,5.4 -7.9,11.4 -11.2,17.4 -3.2,5.7 -6.3,11.5 -9.3,17.3 v 70.9 h 37.3 V 346.3 c -0.1,0 -0.2,0 -0.3,0 z"/>
<path style="fill:#0084c8;" d="m 177.3,374.5 c -3.5,-6.1 -7.1,-12.3 -11.5,-17.7 -2.2,-2.6 -4.5,-5.3 -7.3,-7.2 -2.6,-1.8 -5.7,-3.5 -9,-3.4 v 116.9 h 37.3 v -70.9 c -3.1,-5.9 -6.2,-11.9 -9.6,-17.8 z"/>
<path style="fill:#0084c8;" d="m 258,461.5 c -6.5,-0.8 -13.1,-2.3 -19.1,-4.9 -5.3,-2.4 -10.3,-5.4 -14.7,-9.2 v 15.8 h 37.3 v -1.3 c -1.2,-0.1 -2.4,-0.2 -3.5,-0.4 z"/>
<path style="fill:#0084c8;" d="m 221.9,445.3 c -5.1,-4.8 -9.6,-10.3 -13.7,-16.1 -4,-5.7 -7.6,-11.7 -11,-17.7 -3.5,-6.2 -6.9,-12.6 -10.2,-18.9 0,-0 -0.1,-0.2 -0.1,-0.2 v 70.9 h 37.3 v -15.8 c -0.8,-0.7 -1.6,-1.3 -2.3,-2.1 z"/>
<path style="fill:none; stroke:black; stroke-width:0.38; stroke-linecap:round; stroke-linejoin:round;" d="m 0.3,463.1 c 6.7,-0 13.5,-0 20.2,-0.3 6.4,-0.2 12.9,-0.4 19.3,-1.3 6.8,-0.9 13.4,-2.3 19.8,-4.9 6.4,-2.6 12,-6.5 17.2,-11 5,-4.4 9.5,-9.9 13.3,-15.4 4,-5.7 7.7,-11.6 11.1,-17.7 3.6,-6.3 6.9,-12.6 10.3,-19 3.3,-6.3 6.6,-12.5 10,-18.7 3.4,-6 7,-12 11.2,-17.4 2.2,-2.8 4.6,-5.3 7.3,-7.5 2.6,-2.2 5.8,-3.4 9.2,-3.7 3.4,-0.3 6.6,1.5 9.3,3.3 2.8,1.9 5.1,4.6 7.3,7.2 4.4,5.4 8,11.6 11.5,17.7 3.4,5.9 6.5,12 9.7,18 3.3,6.3 6.7,12.7 10.2,18.9 3.4,6.1 7,12 11,17.7 4.1,5.8 8.6,11.3 13.7,16.1 5,4.8 10.8,8.5 17,11.2 6,2.7 12.6,4.1 19.1,4.9 6.6,0.8 13.3,1.2 20,1.4 6.6,0.2 13.2,0.2 19.8,0.3 0.3,0 0.7,0 1,0"/>
<text x="126.1" y="56.6" style="font-size:16px; color:black; overflow:visible; fill:#a40000; stroke-width:0.5px;">1</text>
<text x="108.2" y="39.3" style="font-size:15.2px; color:black; overflow:visible; fill:#a40000; stroke-width:0.5px;">Standard Deviations</text>
<g transform="matrix(0.467572,0,0,0.536398,-82.0562,-1.20786)">
	<path style="color:black; overflow:visible; fill:#a40000; stroke-width:6.65;" d="m 493.3,133.6 c -0,-4.4 -0.8,-9.6 -4.7,-12.3 -4.2,-3.1 -9.7,-3.4 -14.6,-2 -5,1.4 -10.8,2.3 -15.4,-0.8 -1.6,-0.8 -2.4,-3.6 -3.9,-1.3 -0.7,0.6 -1.4,1.2 -2.2,1.8 3.7,4.9 10.4,6.6 16.3,5.7 4.8,-0.5 9.8,-3.2 14.6,-1.1 3.2,1 4.9,4.3 5.2,7.5 0.7,1.3 -0.8,5.4 1.5,3.9 1,-0.4 2.1,-0.9 3.2,-1.3 z"/>
	<path style="color:black; overflow:visible; fill:#a40000; stroke-width:6.65;" d="m 416.4,133.6 c 0.1,-4.4 0.8,-9.6 4.7,-12.3 4.2,-3.1 9.7,-3.4 14.6,-2 5,1.4 10.8,2.3 15.4,-0.8 1.6,-0.8 2.4,-3.6 3.9,-1.3 0.7,0.6 1.4,1.2 2.2,1.8 -3.7,4.9 -10.4,6.6 -16.3,5.7 -4.8,-0.5 -9.8,-3.2 -14.6,-1.1 -3.2,1 -4.9,4.3 -5.2,7.5 -0.7,1.3 0.8,5.4 -1.5,3.9 -1.1,-0.4 -2.1,-0.9 -3.2,-1.3 z"/>
</g>
<text x="164" y="56.6" style="font-size:16px; color:black; overflow:visible; fill:#a40000; stroke-width:0.5px;">1</text>
<rect x="1657.7" y="675.1" width="803.5" height="500.8" style="stroke-width:1;"/>
<g transform="translate(-144.98,-504.578)"/>
<use transform="translate(37.601)" xlink:href="#aa1"/>
<g transform="matrix(0.467572,0,0,0.536398,-44.0562,-1.20786)">
	<path style="color:black; overflow:visible; fill:#a40000; stroke-width:6.65;" d="m 493.3,133.6 c 0,-4.4 -0.8,-9.6 -4.7,-12.3 -4.2,-3.1 -9.7,-3.4 -14.6,-2 -5,1.4 -10.8,2.3 -15.4,-0.8 -1.6,-0.8 -2.4,-3.6 -3.9,-1.3 -0.7,0.6 -1.4,1.2 -2.2,1.8 3.7,4.9 10.4,6.6 16.3,5.7 4.8,-0.5 9.8,-3.2 14.6,-1.1 3.2,1 4.9,4.3 5.2,7.5 0.7,1.3 -0.8,5.4 1.5,3.9 1,-0.4 2.1,-0.9 3.2,-1.3 z"/>
	<path style="color:black; overflow:visible; fill:#a40000; stroke-width:6.65;" d="m 416.4,133.6 c 0.1,-4.4 0.8,-9.6 4.7,-12.3 4.2,-3.1 9.7,-3.4 14.6,-2 5,1.4 10.8,2.3 15.4,-0.8 1.6,-0.8 2.4,-3.6 3.9,-1.3 0.7,0.6 1.4,1.2 2.2,1.8 -3.7,4.9 -10.4,6.6 -16.3,5.7 -4.8,-0.5 -9.8,-3.2 -14.6,-1.1 -3.2,1 -4.9,4.3 -5.2,7.5 -0.7,1.3 0.8,5.4 -1.5,3.9 -1.1,-0.4 -2.1,-0.9 -3.2,-1.3 z"/>
</g>
<path style="fill:none; stroke:black; stroke-width:0.74;" d="M -0.3,127.5 H 299.5"/>
<path style="fill:none; stroke:black; stroke-width:0.74;" d="M -0.3,293.5 H 299.5"/>
<path style="fill:none; stroke:black; stroke-width:0.74;" d="M -0.3,463.8 H 299.5"/>
<path style="fill:none; stroke:black; stroke-width:0.51;" d="M 149.2,146.5 V 2.3"/>
<path style="fill:none; stroke:black; stroke-width:0.51;" d="M 149.2,314.5 V 170.3"/>
<path style="fill:none; stroke:black; stroke-width:0.51;" d="M 149.2,482.5 V 338.3"/>
<text x="122.7" y="102.5" style="font-size:24px; fill:white;">68%</text>
<text x="124.2" y="272.5" style="font-size:24px; fill:white;">95%</text>
<text x="111.7" y="447" style="font-size:24px; fill:white;">99.7%</text>
<g>
	<text x="64.7" y="479.9">−2</text>
	<text x="103.3" y="479.9">−1</text>
	<text x="178.2" y="479.9">+1</text>
	<text x="26.9" y="479.9">−3</text>
	<text x="253.3" y="479.9">+3</text>
	<text x="216.1" y="479.9">+2</text>
	<path style="fill:none; stroke:black; stroke-width:0.83px;" d="m 37.6,463.3 v 5.9"/>
	<path style="fill:none; stroke:black; stroke-width:0.83px;" d="m 74.9,463.3 v 5.9"/>
	<path style="fill:none; stroke:black; stroke-width:0.83px;" d="m 112.2,463 v 5.9"/>
	<path style="fill:none; stroke:black; stroke-width:0.83px;" d="m 186.9,463 v 5.9"/>
	<path style="fill:none; stroke:black; stroke-width:0.83px;" d="m 224.2,463.2 v 5.9"/>
	<path style="fill:none; stroke:black; stroke-width:0.83px;" d="m 261.5,463.2 v 5.9"/>
</g>
<g transform="translate(0,-168.923)">
	<text x="64.7" y="479.9">−2</text>
	<text x="103.3" y="479.9">−1</text>
	<text x="178.2" y="479.9">+1</text>
	<text x="26.9" y="479.9">−3</text>
	<text x="253.3" y="479.9">+3</text>
	<text x="216.1" y="479.9">+2</text>
	<path style="fill:none; stroke:black; stroke-width:0.83px;" d="m 37.6,463.3 v 5.9"/>
	<path style="fill:none; stroke:black; stroke-width:0.83px;" d="m 74.9,463.3 v 5.9"/>
	<path style="fill:none; stroke:black; stroke-width:0.83px;" d="m 112.2,463 v 5.9"/>
	<path style="fill:none; stroke:black; stroke-width:0.83px;" d="m 186.9,463 v 5.9"/>
	<path style="fill:none; stroke:black; stroke-width:0.83px;" d="m 224.2,463.2 v 5.9"/>
	<path style="fill:none; stroke:black; stroke-width:0.83px;" d="m 261.5,463.2 v 5.9"/>
</g>
<g transform="translate(0,-335.23)">
	<text x="64.7" y="479.9">−2</text>
	<text x="103.3" y="479.9">−1</text>
	<text x="178.2" y="479.9">+1</text>
	<text x="26.9" y="479.9">−3</text>
	<text x="253.3" y="479.9">+3</text>
	<text x="216.1" y="479.9">+2</text>
	<path style="fill:none; stroke:black; stroke-width:0.83px;" d="m 37.6,463.3 v 5.9"/>
	<path style="fill:none; stroke:black; stroke-width:0.83px;" d="m 74.9,463.3 v 5.9"/>
	<path style="fill:none; stroke:black; stroke-width:0.83px;" d="m 112.2,463 v 5.9"/>
	<path style="fill:none; stroke:black; stroke-width:0.83px;" d="m 186.9,463 v 5.9"/>
	<path style="fill:none; stroke:black; stroke-width:0.83px;" d="m 224.2,463.2 v 5.9"/>
	<path style="fill:none; stroke:black; stroke-width:0.83px;" d="m 261.5,463.2 v 5.9"/>
</g>
</svg>